<svg width="48" height="48" fill="none" xmlns="http://www.w3.org/2000/svg"><path d="M0 10.667C0 4.776 4.776 0 10.667 0h26.666C43.224 0 48 4.776 48 10.667v26.666C48 43.224 43.224 48 37.333 48H10.667C4.776 48 0 43.224 0 37.333V10.667z" fill="#00C471"/><path d="M29.48 15.353v5.273c-3.032 0-5.48 2.355-5.48 5.273h-5.345a.134.134 0 01-.136-.133c.074-5.756 4.96-10.413 10.962-10.413zm10.964 10.546h-5.482c0-2.918-2.448-5.273-5.481-5.273v-5.273c6.048 0 10.963 4.728 10.963 10.546zM29.48 36.444v-5.272c3.034 0 5.482-2.355 5.482-5.273h5.482c0 5.835-4.915 10.545-10.963 10.545z" fill="#FAFAFA"/><path d="M18.518 36.444v-5.272c3.033 0 5.481-2.355 5.481-5.273h5.345c.075 0 .137.06.136.133-.074 5.773-4.96 10.412-10.962 10.412zM7.555 25.899h5.481c0 2.918 2.449 5.273 5.482 5.273v5.272c-6.048 0-10.963-4.71-10.963-10.545zm10.963-10.546v5.273c-3.033 0-5.482 2.355-5.482 5.273H7.555c0-5.818 4.915-10.546 10.963-10.546zm5.275-7.221c0-.073.062-.132.138-.132h5.397c.076 0 .137.06.137.132v6.032a.136.136 0 01-.137.133 13.07 13.07 0 00-5.335 1.188c-.092.042-.2-.022-.2-.12V8.132z" fill="#FAFAFA"/><path d="M22.726 16.25a.132.132 0 00.061-.11v-.655a.135.135 0 00-.137-.132h-4.254v5.275h.164a.233.233 0 00.205-.12 11.861 11.861 0 013.961-4.258zm2.501 19.297a.132.132 0 00-.061.11v.655c0 .073.061.132.137.132h4.254v-5.273h-.165a.233.233 0 00-.204.12 11.858 11.858 0 01-3.961 4.256z" fill="#FAFAFA"/></svg>